<?xml version="1.0" standalone="no"?><!DOCTYPE svg PUBLIC "-//W3C//DTD SVG 1.1//EN" "http://www.w3.org/Graphics/SVG/1.1/DTD/svg11.dtd"><svg t="1557394601936" class="icon" style="" viewBox="0 0 1024 1024" version="1.1" xmlns="http://www.w3.org/2000/svg" p-id="2346" xmlns:xlink="http://www.w3.org/1999/xlink" width="200" height="200"><defs><style type="text/css"></style></defs><path d="M465.066667 465.066667H264.533333c-93.866667 0-170.666667-76.8-170.666666-170.666667v-29.866667c0-93.866667 76.8-170.666667 170.666666-170.666666h25.6c93.866667 0 170.666667 76.8 170.666667 170.666666v200.533334zM264.533333 162.133333c-55.466667 0-102.4 46.933333-102.4 102.4v25.6c0 55.466667 46.933333 102.4 102.4 102.4h128v-128c0-55.466667-46.933333-102.4-102.4-102.4h-25.6zM294.4 930.133333h-29.866667c-93.866667 0-170.666667-76.8-170.666666-170.666666v-25.6c0-93.866667 76.8-170.666667 170.666666-170.666667h196.266667v196.266667c4.266667 93.866667-72.533333 170.666667-166.4 170.666666z m-29.866667-302.933333c-55.466667 0-102.4 46.933333-102.4 102.4v25.6c0 55.466667 46.933333 102.4 102.4 102.4h25.6c55.466667 0 102.4-46.933333 102.4-102.4v-128h-128zM759.466667 465.066667h-196.266667V264.533333c0-93.866667 76.8-170.666667 170.666667-170.666666h25.6c93.866667 0 170.666667 76.8 170.666666 170.666666v25.6c0 98.133333-76.8 174.933333-170.666666 174.933334z m-132.266667-68.266667h128c55.466667 0 102.4-46.933333 102.4-102.4v-29.866667c0-55.466667-46.933333-102.4-102.4-102.4h-25.6c-55.466667 0-102.4 46.933333-102.4 102.4v132.266667zM759.466667 930.133333h-25.6c-93.866667 0-170.666667-76.8-170.666667-170.666666v-196.266667h196.266667c93.866667 0 170.666667 76.8 170.666666 170.666667v25.6c0 93.866667-76.8 170.666667-170.666666 170.666666z m-132.266667-302.933333v128c0 55.466667 46.933333 102.4 102.4 102.4h25.6c55.466667 0 102.4-46.933333 102.4-102.4v-25.6c0-55.466667-46.933333-102.4-102.4-102.4h-128z" p-id="2347"></path></svg>