<?xml version="1.0" standalone="no"?><!DOCTYPE svg PUBLIC "-//W3C//DTD SVG 1.1//EN" "http://www.w3.org/Graphics/SVG/1.1/DTD/svg11.dtd"><svg t="1553064192604" class="icon" style="" viewBox="0 0 1024 1024" version="1.1" xmlns="http://www.w3.org/2000/svg" p-id="11784" xmlns:xlink="http://www.w3.org/1999/xlink" width="200" height="200"><defs><style type="text/css"></style></defs><path d="M932 694.3H596c-15.4 0-28.1-12.5-28.1-28.1 0-15.5 12.5-28.1 28.1-28.1h336c15.4 0 28.1 12.5 28.1 28.1 0 15.6-12.7 28.1-28.1 28.1z m0 128.9H596c-15.4 0-28.1-12.5-28.1-28.1 0-15.4 12.5-28.1 28.1-28.1h336c15.4 0 28.1 12.5 28.1 28.1-0.2 15.6-12.7 28.1-28.1 28.1z m0 129H596c-15.4 0-28.1-12.5-28.1-28.1 0-15.5 12.5-28.1 28.1-28.1h336c15.4 0 28.1 12.5 28.1 28.1 0 15.6-12.7 28.1-28.1 28.1zM716.3 282.7l55.2-23.7c-49.6-50.9-113.1-88.3-185.2-103.3l5.5 59.2c47.1 12.6 89.3 36.4 124.5 67.8z" p-id="11785"></path><path d="M372 511.9c0-77.2 62.8-140.1 140.1-140.1s140.1 62.8 140.1 140.1c0 21.6-5.3 41.8-14 60l59.5 0.6c6.4-19.2 10.6-39.4 10.6-60.6 0-108.1-87.9-196.1-196.1-196.1S316 403.8 316 511.9c0 105.2 83.5 190.7 187.6 195.2l0.1-56C430.5 646.7 372 586.3 372 511.9z" p-id="11786"></path><path d="M935.3 349.3l-11.7-20.1-10.6-18.5-33.2-57.6-9.8-17-12.4-21.6c-15.4-26.7-46.3-33.7-76.5-20.5l-52.8 22.8-4.2 1.6c-25.1-18.5-52.3-34.1-81.7-45.6 0.9 0.3 1.8 0.4 2.7 0.9l-6.3-53.5c-3.8-32.7-25.2-56-56-56H427.1c-30.8 0-52.2 23.3-56 56l-6.9 59.7c1.6-0.8 3.3-1 5-1.7-31.9 13.9-61 32.7-87.3 54.7l1.5-1.9-5.8-2.4-51.8-22.6c-30.2-13.2-61.1-6.2-76.5 20.5l-11.7 20.1-10.7 18.6-33.2 57.6-9.8 17-12.4 21.6c-15.5 26.7-6 56.9 20.5 76.5l58.1 43.2v-0.4c0.2-2.8 0.8-5.7 1.1-8.5-1.7 13.1-3.1 26.2-3.1 39.7 0 14.2 1.4 28.2 3.1 42l-0.9 0.8-58.4 43.4C65.5 617.7 56 648 71.4 674.6L83 694.5l10.7 18.6 33.2 57.6 9.8 17 12.4 21.6c15.4 26.7 46.3 33.7 76.5 20.5l64.3-27.7 3.3-1.4c26.5 20.4 55.6 37.7 87.2 50.2-0.5-0.2-1.2-0.3-1.7-0.5l6.3 53.5c3.8 32.7 25.2 56 56 56h49.2l0.1-56h-48.4c0-0.8-0.9-2.8-1.3-6.4l-3.5-29.5h-0.1l-7.7-59.8c-48.8-13.6-92.6-38.8-128.5-72.5L248 759.3h-0.1l-0.8 0.3-2.1 1-41.8 18c-3.2 1.4-5.5 1.7-6.2 2.1l-12-20.8-9.8-17-33.2-57.6-10.7-18.6-11.1-19.3c0.6-0.4 2.1-2.2 4.9-4.2l35.9-26.8 1.9-1.4v-0.1l0.6-0.5 47.5-36.3c-4.7-21.4-7.2-43.4-7.2-66.1 0-19.4 2.3-38.3 5.7-56.8l-48.6-35.6-0.8-0.4-35.2-26.2c-2.8-2.2-4.2-3.9-4.9-4.3l12-20.8 9.8-17 33.2-57.6 10.7-18.6 11.1-19.3c0.6 0.3 2.9 0.6 6.2 2.1l27.3 11.8 9.1 4 53.6 23.4c33.8-34.3 75-61.2 121.7-76.7l7.6-60.3h0.1l3.9-33.1c0.4-3.6 1.2-5.6 1.3-6.4h154c0 0.8 0.9 2.8 1.3 6.4l3.5 29.5c0.1 0 0.1 0.1 0.2 0.1-0.1 0-0.2-0.1-0.3-0.1l5.5 59.2c46.8 12.6 89 36.5 124.3 67.8l49.4-21.1 2.9-1.2 2.9-1.3 1.1-0.4 30.6-13.2c3.2-1.4 5.5-1.7 6.2-2.1l12 20.8 9.8 17 33.2 57.6 10.7 18.6 11.1 19.3c-0.6 0.4-2.1 2.2-4.9 4.2l-22.3 16.6-1.8 1.1-2.7 1.9h-0.1l-45.1 32.9c6.7 25 10.6 51.1 10.6 78.2 0 21.6-2.9 42.3-7.1 62.6l57.1 0.8c3.7-20.6 6.2-41.7 6.2-63.3 0-18.6-1.7-36.7-4.5-54.5 0 0.2 0.1 0.4 0.1 0.5l43.4-32.3c26.5-19.6 35.9-49.8 20.4-76.5z" p-id="11787"></path><path d="M462.5 931.9a28.1 28.1 0 1 0 56.2 0 28.1 28.1 0 1 0-56.2 0z" p-id="11788"></path></svg>