<?xml version="1.0" standalone="no"?><!DOCTYPE svg PUBLIC "-//W3C//DTD SVG 1.1//EN" "http://www.w3.org/Graphics/SVG/1.1/DTD/svg11.dtd"><svg t="1557718385197" class="icon" style="" viewBox="0 0 1024 1024" version="1.1" xmlns="http://www.w3.org/2000/svg" p-id="18584" xmlns:xlink="http://www.w3.org/1999/xlink" width="200" height="200"><defs><style type="text/css"></style></defs><path d="M738.304 828.928v43.52c0 42.496-34.304 76.8-76.8 76.8H215.04c-42.496 0-76.8-34.304-76.8-76.8v-609.28c0-42.496 34.304-76.8 76.8-76.8h102.4v51.2H215.04c-14.336 0-25.6 11.264-25.6 25.6v609.28c0 14.336 11.264 25.6 25.6 25.6h446.464c14.336 0 25.6-11.264 25.6-25.6v-43.52h51.2z" fill="" p-id="18585"></path><path d="M851.968 827.392H385.536c-40.448 0-73.216-32.768-73.216-73.216V138.24c0-40.448 32.768-73.216 73.216-73.216h300.032c14.336 0 28.16 6.144 37.888 16.896l188.416 208.384c8.704 9.216 13.312 21.504 13.312 34.304v429.568c0.512 39.936-32.768 73.216-73.216 73.216z m-466.432-711.68c-12.288 0-22.016 10.24-22.016 22.016v615.424c0 12.288 10.24 22.016 22.016 22.016h466.432c12.288 0 22.016-10.24 22.016-22.016V324.096l-188.416-208.384H385.536z" fill="" p-id="18586"></path><path d="M914.432 363.008H747.52c-42.496 0-76.8-34.304-76.8-76.8V72.192l243.712 290.816zM721.92 163.84v122.368c0 14.336 11.264 25.6 25.6 25.6h108.032L721.92 163.84zM781.824 506.368H452.096c-16.384 0-30.208-11.264-30.208-25.6 0-13.824 13.312-25.6 30.208-25.6h330.24c16.896 0 30.208 11.264 30.208 25.6 0 13.824-13.312 25.6-30.72 25.6zM566.784 347.648H452.096c-16.384 0-30.208-11.264-30.208-25.6 0-13.824 13.312-25.6 30.208-25.6h115.2c16.896 0 30.208 11.264 30.208 25.6 0 13.824-13.312 25.6-30.72 25.6zM781.824 645.632H452.096c-16.384 0-30.208-11.264-30.208-25.6s13.312-25.6 30.208-25.6h330.24c16.896 0 30.208 11.264 30.208 25.6 0 13.824-13.312 25.6-30.72 25.6z" fill="" p-id="18587"></path></svg>