<?xml version="1.0" standalone="no"?><!DOCTYPE svg PUBLIC "-//W3C//DTD SVG 1.1//EN" "http://www.w3.org/Graphics/SVG/1.1/DTD/svg11.dtd"><svg t="1553063820918" class="icon" style="" viewBox="0 0 1024 1024" version="1.1" xmlns="http://www.w3.org/2000/svg" p-id="1227" xmlns:xlink="http://www.w3.org/1999/xlink" width="200" height="200"><defs><style type="text/css"></style></defs><path d="M506.1632 487.8336a142.1312 142.1312 0 1 0-196.3008-205.6192 142.1312 142.1312 0 0 0 196.3008 205.6192z m-169.3696-34.816a98.4064 98.4064 0 1 1 142.336-135.9872 98.4064 98.4064 0 0 1-142.336 135.9872z m208.0768 217.9072l101.4784 106.2912a65.536 65.536 0 1 0 90.624 94.9248l58.368 52.9408s68.8128 11.1616 100.352-19.0464c31.744-30.208 37.888-112.64 37.888-112.64L687.2064 534.9376A317.0304 317.0304 0 0 0 510.0544 84.992l-1.024 46.2848a273.2032 273.2032 0 0 1 146.0224 370.0736l-23.04 39.1168 245.8624 257.536s-0.512 49.7664-17.2032 65.7408c-14.848 14.1312-61.8496 9.728-61.8496 9.728l-60.416-63.1808-31.6416 30.208a21.8112 21.8112 0 1 1-30.208-31.744l31.744-30.1056-156.5696-163.84-38.912 22.528A273.2032 273.2032 0 1 1 334.2336 121.856l1.024-45.1584a315.0848 315.0848 0 0 0-146.432 79.0528 317.1328 317.1328 0 0 0 355.9424 515.072z" p-id="1228"></path></svg>