<?xml version="1.0" standalone="no"?><!DOCTYPE svg PUBLIC "-//W3C//DTD SVG 1.1//EN" "http://www.w3.org/Graphics/SVG/1.1/DTD/svg11.dtd"><svg t="1557718208766" class="icon" style="" viewBox="0 0 1024 1024" version="1.1" xmlns="http://www.w3.org/2000/svg" p-id="13139" xmlns:xlink="http://www.w3.org/1999/xlink" width="200" height="200"><defs><style type="text/css"></style></defs><path d="M36.571429 0v1024h950.857142V0H36.571429z m892.342857 950.857143H95.085714V512h175.542857V438.857143H95.085714V292.571429h299.885715V219.428571H95.085714V73.142857h833.828572v877.714286z" p-id="13140"></path><path d="M848.457143 402.285714c-14.628571-7.314286-36.571429-7.314286-43.885714 7.314286L563.2 804.571429 402.285714 680.228571c-14.628571-14.628571-36.571429-14.628571-43.885714 0-14.628571 14.628571-14.628571 36.571429 0 51.2l190.171429 153.6c7.314286 7.314286 14.628571 7.314286 21.942857 7.314286h7.314285c7.314286 0 14.628571-7.314286 21.942858-14.628571l263.314285-424.228572c7.314286-14.628571 0-36.571429-14.628571-51.2z" p-id="13141"></path></svg>